# xmcd
#
# Track frame offsets: 
#        150
#        12886
#        30898
#        51891
#        70701
#        85245
#        103341
#        127308
#        132848
#        148222
#        156100
#        178693
#        201564
#        204383
#        227785
#        254711
#
# Disc length: 3764 seconds
#
# Revision: 0
# Processed by: cddbd v1.5.2PL0 Copyright (c) Steve Scherf et al.
# Submitted via: ExactAudioCopy v1.3
#
DISCID=ee0eb210
DTITLE=Holler My Dear - Steady As She Goes
DYEAR=2018
DGENRE=Pop
TTITLE0=01. Steady As She Goes
TTITLE1=02. Forward
TTITLE2=03. Home Away From Home
TTITLE3=04. Seeds Of Concord
TTITLE4=05. Dream Sequence
TTITLE5=06. Little By Little
TTITLE6=07. Nemories
TTITLE7=08. The Deep
TTITLE8=09. Orchid Song I
TTITLE9=10. Orchid Song II
TTITLE10=11. The More The Merrier
TTITLE11=12. Scintillating Lady
TTITLE12=13. Wrong Thing’s Some
TTITLE13=14. Something’s Wrong
TTITLE14=15. Zwischen den Städten
TTITLE15=16. Afterword
EXTD=
EXTT0=
EXTT1=
EXTT2=
EXTT3=
EXTT4=
EXTT5=
EXTT6=
EXTT7=
EXTT8=
EXTT9=
EXTT10=
EXTT11=
EXTT12=
EXTT13=
EXTT14=
EXTT15=
PLAYORDER=
